<svg xmlns="http://www.w3.org/2000/svg" viewBox="0 0 960 600" role="img" aria-labelledby="title desc">
  <title id="title">HMI interface visual</title>
  <desc id="desc">A stylised rugged machinery HMI display with interface panels and soft keys.</desc>
  <defs>
    <linearGradient id="line" x1="120" x2="820" y1="90" y2="520" gradientUnits="userSpaceOnUse">
      <stop stop-color="#8bd3ff"/>
      <stop offset=".55" stop-color="#b7a3ff"/>
      <stop offset="1" stop-color="#fbbf24"/>
    </linearGradient>
    <radialGradient id="glow" cx="50%" cy="45%" r="62%">
      <stop stop-color="#8bd3ff" stop-opacity=".23"/>
      <stop offset="1" stop-color="#020617" stop-opacity="0"/>
    </radialGradient>
  </defs>
  <rect width="960" height="600" rx="36" fill="#050816"/>
  <rect width="960" height="600" rx="36" fill="url(#glow)"/>
  <path d="M80 120h800M80 220h800M80 320h800M80 420h800M160 70v460M320 70v460M480 70v460M640 70v460M800 70v460" fill="none" stroke="#8bd3ff" stroke-opacity=".08"/>
  <rect x="234" y="116" width="492" height="342" rx="34" fill="#172033" stroke="#8bd3ff" stroke-opacity=".45" stroke-width="4"/>
  <rect x="282" y="166" width="396" height="222" rx="22" fill="#020617" stroke="#fbbf24" stroke-opacity=".32" stroke-width="3"/>
  <path d="M326 334l84-82 76 48 92-106 78 74" fill="none" stroke="url(#line)" stroke-width="10" stroke-linecap="round" stroke-linejoin="round"/>
  <circle cx="410" cy="252" r="13" fill="#fbbf24" stroke="#fff" stroke-opacity=".5" stroke-width="3"/>
  <circle cx="578" cy="194" r="13" fill="#fbbf24" stroke="#fff" stroke-opacity=".5" stroke-width="3"/>
  <path d="M198 196h-54M198 276h-54M198 356h-54M762 196h54M762 276h54M762 356h54" stroke="#8bd3ff" stroke-opacity=".56" stroke-width="12" stroke-linecap="round"/>
  <circle cx="718" cy="476" r="42" fill="#fbbf24" fill-opacity=".14" stroke="#fbbf24" stroke-opacity=".5" stroke-width="4"/>
</svg>
