<svg xmlns="http://www.w3.org/2000/svg" viewBox="0 0 960 600" role="img" aria-labelledby="title desc">
  <title id="title">Generated machinery application placeholder</title>
  <desc id="desc">A stylised machinery cab with display, sensors and field application lines.</desc>
  <defs>
    <linearGradient id="line" x1="120" x2="840" y1="80" y2="520" gradientUnits="userSpaceOnUse">
      <stop stop-color="#86efac"/>
      <stop offset=".48" stop-color="#8bd3ff"/>
      <stop offset="1" stop-color="#fbbf24"/>
    </linearGradient>
    <radialGradient id="glow" cx="50%" cy="42%" r="62%">
      <stop stop-color="#86efac" stop-opacity=".2"/>
      <stop offset="1" stop-color="#020617" stop-opacity="0"/>
    </radialGradient>
  </defs>
  <rect width="960" height="600" rx="36" fill="#050816"/>
  <rect width="960" height="600" rx="36" fill="url(#glow)"/>
  <path d="M100 450c120-60 230-60 350 0s250 60 410 0" fill="none" stroke="#86efac" stroke-opacity=".24" stroke-width="5"/>
  <path d="M148 388h664" stroke="#8bd3ff" stroke-opacity=".12" stroke-width="4"/>
  <path d="M248 372l70-132h220l92 132" fill="#172033" stroke="#8bd3ff" stroke-opacity=".42" stroke-width="4" stroke-linejoin="round"/>
  <rect x="342" y="194" width="156" height="92" rx="12" fill="#020617" stroke="#fbbf24" stroke-opacity=".36" stroke-width="4"/>
  <path d="M178 372h616l46 74H150l28-74Z" fill="#172033" stroke="#8bd3ff" stroke-opacity=".42" stroke-width="4" stroke-linejoin="round"/>
  <circle cx="286" cy="464" r="48" fill="#020617" stroke="url(#line)" stroke-width="10"/>
  <circle cx="672" cy="464" r="48" fill="#020617" stroke="url(#line)" stroke-width="10"/>
  <path d="M500 240c82-20 148 2 198 66M500 276c58-10 100 8 132 46" fill="none" stroke="url(#line)" stroke-width="8" stroke-linecap="round"/>
  <circle cx="730" cy="326" r="14" fill="#fbbf24"/>
</svg>
