<svg xmlns="http://www.w3.org/2000/svg" viewBox="0 0 960 600" role="img" aria-labelledby="title desc">
  <title id="title">I/O module visual</title>
  <desc id="desc">A stylised I/O module with terminals, wiring and machine control signals.</desc>
  <defs>
    <linearGradient id="line" x1="120" x2="840" y1="100" y2="500" gradientUnits="userSpaceOnUse">
      <stop stop-color="#8bd3ff"/>
      <stop offset=".55" stop-color="#86efac"/>
      <stop offset="1" stop-color="#fbbf24"/>
    </linearGradient>
    <radialGradient id="glow" cx="50%" cy="48%" r="62%">
      <stop stop-color="#86efac" stop-opacity=".2"/>
      <stop offset="1" stop-color="#020617" stop-opacity="0"/>
    </radialGradient>
  </defs>
  <rect width="960" height="600" rx="36" fill="#050816"/>
  <rect width="960" height="600" rx="36" fill="url(#glow)"/>
  <rect x="280" y="132" width="400" height="336" rx="32" fill="#172033" stroke="#8bd3ff" stroke-opacity=".42" stroke-width="4"/>
  <rect x="342" y="204" width="276" height="120" rx="18" fill="#020617" stroke="#fbbf24" stroke-opacity=".34" stroke-width="4"/>
  <text x="480" y="276" text-anchor="middle" fill="#f1f5f9" font-family="monospace" font-size="44" font-weight="800">I/O</text>
  <g stroke="url(#line)" stroke-width="9" stroke-linecap="round">
    <path d="M224 198h84"/>
    <path d="M224 258h84"/>
    <path d="M224 318h84"/>
    <path d="M652 198h84"/>
    <path d="M652 258h84"/>
    <path d="M652 318h84"/>
    <path d="M372 468v52"/>
    <path d="M480 468v52"/>
    <path d="M588 468v52"/>
  </g>
  <g fill="#fbbf24">
    <circle cx="224" cy="198" r="13"/>
    <circle cx="224" cy="258" r="13"/>
    <circle cx="224" cy="318" r="13"/>
    <circle cx="736" cy="198" r="13"/>
    <circle cx="736" cy="258" r="13"/>
    <circle cx="736" cy="318" r="13"/>
  </g>
</svg>
